<?xml version="1.0" encoding="UTF-8" standalone="no"?>
<svg
   xmlns:svg="http://www.w3.org/2000/svg"
   xmlns="http://www.w3.org/2000/svg"
   width="800.0"
   height="240.0"

>
    <g transform="scale(14.514070827248545, -14.514070827248545)   translate(20.1607755763351,-7.578852363975467)" stroke-width="0.06889865785432242"  fill="none">
       <!-- hidden lines -->
       <g  stroke="rgb(160, 160, 160)" fill="none" stroke-dasharray="0.06889865785432242,0.06889865785432242" >
			<path d="M3.067539658189556,6.190879106889018 L3.067539658189556,-3.6002611502197146 " />
			<path d="M-6.371043905470618,-4.271902842689534 L3.067539658189558,-3.600261150219714 " />
			<path d="M3.067539658189556,-3.6002611502197146 L6.371043905470618,-5.5192374144192 " />
			<path d="M-3.185521952735309,2.7596187072095995 L-3.185521952735309,-2.135951421344767 " />
			<path d="M-3.185521952735309,-2.135951421344767 L-1.533769829094778,-3.0954395534445096 " />
			<path d="M-1.533769829094778,1.8001305751098573 L-1.533769829094778,-3.095439553444509 " />
			<path d="M-3.185521952735309,2.7596187072095995 L-1.533769829094778,1.800130575109857 " />
			<path d="M-3.185521952735309,2.7596187072095995 L1.533769829094779,3.095439553444509 " />
			<path d="M1.533769829094778,3.095439553444509 L1.533769829094778,-1.8001305751098573 " />
			<path d="M-3.185521952735309,-2.135951421344767 L1.533769829094779,-1.800130575109857 " />
			<path d="M-1.533769829094778,-3.095439553444509 L3.18552195273531,-2.7596187072095995 " />
			<path d="M1.533769829094778,-1.8001305751098573 L3.185521952735309,-2.7596187072096 " />
			<path d="M-1.533769829094778,1.8001305751098573 L3.18552195273531,2.135951421344767 " />
			<path d="M3.185521952735309,2.135951421344767 L3.185521952735309,-2.7596187072095995 " />
			<path d="M1.533769829094778,3.095439553444509 L3.185521952735309,2.1359514213447666 " />

       </g>

       <!-- solid lines -->
       <g  stroke="rgb(0, 0, 0)" fill="none">
			<path d="M-6.371043905470618,5.519237414419199 L-6.371043905470618,-4.271902842689534 " />
			<path d="M-6.371043905470618,-4.271902842689534 L-3.067539658189556,-6.190879106889019 " />
			<path d="M-3.067539658189556,3.6002611502197146 L-3.067539658189556,-6.190879106889018 " />
			<path d="M-6.371043905470618,5.519237414419199 L-3.067539658189556,3.600261150219714 " />
			<path d="M-6.371043905470618,5.519237414419199 L3.067539658189558,6.190879106889018 " />
			<path d="M-3.067539658189556,-6.190879106889018 L6.37104390547062,-5.519237414419199 " />
			<path d="M-3.067539658189556,3.6002611502197146 L6.37104390547062,4.271902842689534 " />
			<path d="M6.371043905470618,4.271902842689534 L6.371043905470618,-5.519237414419199 " />
			<path d="M3.067539658189556,6.190879106889018 L6.371043905470618,4.271902842689533 " />

       </g>
    </g>
    <g transform="translate(20,210.0)" stroke="rgb(0,0,255)">
        <line x1="30" y1="-30" x2="75" y2="-33" stroke-width="3" stroke="#000000" />
         <text x="80" y="-30" style="stroke:#000000">X </text>

        <line x1="30" y1="-30" x2="30" y2="-75" stroke-width="3" stroke="#000000" />
         <text x="25" y="-85" style="stroke:#000000">Y </text>

        <line x1="30" y1="-30" x2="58" y2="-15" stroke-width="3" stroke="#000000" />
         <text x="65" y="-5" style="stroke:#000000">Z </text>
        <!--
            <line x1="0" y1="0" x2="14.514070827248545" y2="0" stroke-width="3" />
            <text x="0" y="20" style="stroke:#000000">1  mm </text>
        -->
    </g>
</svg>
