solid 
 facet normal -9.720421e-01 -2.348067e-01  0.000000e+00
   outer loop
     vertex  0.000000e+00  0.000000e+00  0.000000e+00
     vertex  1.604963e-02 -6.644151e-02  0.000000e+00
     vertex  1.604963e-02 -6.644151e-02  8.600000e+01
   endloop
 endfacet
 facet normal -9.720421e-01 -2.348067e-01  0.000000e+00
   outer loop
     vertex  0.000000e+00  0.000000e+00  0.000000e+00
     vertex  1.604963e-02 -6.644151e-02  8.600000e+01
     vertex  0.000000e+00  0.000000e+00  8.600000e+01
   endloop
 endfacet
 facet normal  4.188182e-01 -9.080701e-01  0.000000e+00
   outer loop
     vertex  1.604963e-02 -6.644151e-02  0.000000e+00
     vertex  1.601063e-01  0.000000e+00  0.000000e+00
     vertex  1.601063e-01  0.000000e+00  8.600000e+01
   endloop
 endfacet
 facet normal  4.188182e-01 -9.080701e-01  0.000000e+00
   outer loop
     vertex  1.604963e-02 -6.644151e-02  0.000000e+00
     vertex  1.601063e-01  0.000000e+00  8.600000e+01
     vertex  1.604963e-02 -6.644151e-02  8.600000e+01
   endloop
 endfacet
 facet normal  0.000000e+00  1.000000e+00  0.000000e+00
   outer loop
     vertex  0.000000e+00  0.000000e+00  0.000000e+00
     vertex  0.000000e+00  0.000000e+00  8.600000e+01
     vertex  1.601063e-01  0.000000e+00  8.600000e+01
   endloop
 endfacet
 facet normal  0.000000e+00  1.000000e+00 -0.000000e+00
   outer loop
     vertex  1.601063e-01  0.000000e+00  0.000000e+00
     vertex  0.000000e+00  0.000000e+00  0.000000e+00
     vertex  1.601063e-01  0.000000e+00  8.600000e+01
   endloop
 endfacet
 facet normal -0.000000e+00  0.000000e+00 -1.000000e+00
   outer loop
     vertex  1.601063e-01  0.000000e+00  0.000000e+00
     vertex  1.604963e-02 -6.644151e-02  0.000000e+00
     vertex  0.000000e+00  0.000000e+00  0.000000e+00
   endloop
 endfacet
 facet normal  0.000000e+00  0.000000e+00  1.000000e+00
   outer loop
     vertex  1.601063e-01  0.000000e+00  8.600000e+01
     vertex  0.000000e+00  0.000000e+00  8.600000e+01
     vertex  1.604963e-02 -6.644151e-02  8.600000e+01
   endloop
 endfacet
 facet normal  0.000000e+00 -1.000000e+00  0.000000e+00
   outer loop
     vertex  4.750000e+02  0.000000e+00  0.000000e+00
     vertex  1.601063e-01  0.000000e+00  8.600000e+01
     vertex  1.601063e-01  0.000000e+00  0.000000e+00
   endloop
 endfacet
 facet normal  0.000000e+00 -1.000000e+00  0.000000e+00
   outer loop
     vertex  4.750000e+02  0.000000e+00  0.000000e+00
     vertex  4.750000e+02  0.000000e+00  8.600000e+01
     vertex  1.601063e-01  0.000000e+00  8.600000e+01
   endloop
 endfacet
 facet normal  9.913992e-01 -1.308723e-01  0.000000e+00
   outer loop
     vertex  5.077181e+02  2.478498e+02  0.000000e+00
     vertex  4.750000e+02  0.000000e+00  8.600000e+01
     vertex  4.750000e+02  0.000000e+00  0.000000e+00
   endloop
 endfacet
 facet normal  9.913992e-01 -1.308723e-01  0.000000e+00
   outer loop
     vertex  5.077181e+02  2.478498e+02  0.000000e+00
     vertex  5.077181e+02  2.478498e+02  8.600000e+01
     vertex  4.750000e+02  0.000000e+00  8.600000e+01
   endloop
 endfacet
 facet normal -4.927273e-01  8.701838e-01  0.000000e+00
   outer loop
     vertex  3.767380e+02  1.736845e+02  0.000000e+00
     vertex  5.077181e+02  2.478498e+02  8.600000e+01
     vertex  5.077181e+02  2.478498e+02  0.000000e+00
   endloop
 endfacet
 facet normal -4.927273e-01  8.701838e-01  0.000000e+00
   outer loop
     vertex  3.767380e+02  1.736845e+02  0.000000e+00
     vertex  3.767380e+02  1.736845e+02  8.600000e+01
     vertex  5.077181e+02  2.478498e+02  8.600000e+01
   endloop
 endfacet
 facet normal -4.188182e-01  9.080701e-01  0.000000e+00
   outer loop
     vertex  1.601063e-01  0.000000e+00  0.000000e+00
     vertex  3.767380e+02  1.736845e+02  8.600000e+01
     vertex  3.767380e+02  1.736845e+02  0.000000e+00
   endloop
 endfacet
 facet normal -4.188182e-01  9.080701e-01  0.000000e+00
   outer loop
     vertex  1.601063e-01  0.000000e+00  0.000000e+00
     vertex  1.601063e-01  0.000000e+00  8.600000e+01
     vertex  3.767380e+02  1.736845e+02  8.600000e+01
   endloop
 endfacet
 facet normal  0.000000e+00 -0.000000e+00 -1.000000e+00
   outer loop
     vertex  3.767380e+02  1.736845e+02  0.000000e+00
     vertex  4.750000e+02  0.000000e+00  0.000000e+00
     vertex  1.601063e-01  0.000000e+00  0.000000e+00
   endloop
 endfacet
 facet normal  0.000000e+00  0.000000e+00 -1.000000e+00
   outer loop
     vertex  5.077181e+02  2.478498e+02  0.000000e+00
     vertex  4.750000e+02  0.000000e+00  0.000000e+00
     vertex  3.767380e+02  1.736845e+02  0.000000e+00
   endloop
 endfacet
 facet normal  0.000000e+00  0.000000e+00  1.000000e+00
   outer loop
     vertex  3.767380e+02  1.736845e+02  8.600000e+01
     vertex  1.601063e-01  0.000000e+00  8.600000e+01
     vertex  4.750000e+02  0.000000e+00  8.600000e+01
   endloop
 endfacet
 facet normal  0.000000e+00  0.000000e+00  1.000000e+00
   outer loop
     vertex  5.077181e+02  2.478498e+02  8.600000e+01
     vertex  3.767380e+02  1.736845e+02  8.600000e+01
     vertex  4.750000e+02  0.000000e+00  8.600000e+01
   endloop
 endfacet
endsolid
